<?xml version="1.0" standalone="no"?>
<!DOCTYPE svg PUBLIC "-//W3C//DTD SVG 20010904//EN" "http://www.w3.org/TR/2001/REC-SVG-20010904/DTD/svg10.dtd">
<svg version="1.0" xmlns="http://www.w3.org/2000/svg"
    width="813.000000pt" height="147.000000pt" viewBox="0 0 813.000000 147.000000"
    preserveAspectRatio="xMidYMid meet">

    <g transform="translate(0.000000,147.000000) scale(0.100000,-0.100000)"
        fill="#000000" stroke="none">
        <path
            d="M740 1390 c0 -3 7 -27 15 -54 49 -161 -15 -361 -174 -546 l-30 -35
-1 51 c0 54 -31 117 -60 121 -18 3 -72 -68 -112 -149 -44 -90 -62 -187 -48
-267 6 -36 16 -73 21 -84 6 -10 8 -21 5 -24 -6 -7 -77 36 -93 57 -18 22 -18
550 -1 572 7 9 87 58 178 111 268 153 240 132 228 175 -5 20 -14 41 -18 46
-10 10 -411 -218 -451 -257 -15 -15 -33 -45 -39 -65 -16 -59 -13 -565 4 -605
20 -48 56 -75 226 -172 85 -48 181 -103 213 -122 71 -40 78 -41 45 -5 -34 35
-64 105 -77 179 -20 108 16 245 89 342 48 65 120 129 120 107 0 -8 -5 -18 -11
-22 -19 -11 -58 -111 -67 -169 -18 -112 23 -236 106 -321 45 -47 94 -74 133
-74 21 0 172 79 298 156 111 68 106 50 109 387 3 308 -1 348 -40 384 -27 24
-297 183 -312 183 -5 0 0 -10 11 -22 12 -13 34 -50 51 -83 27 -53 37 -64 94
-94 107 -58 98 -25 98 -346 0 -256 -2 -283 -17 -297 -29 -23 -185 -110 -190
-105 -2 3 8 31 22 64 55 120 68 274 32 390 l-12 42 -23 -49 c-21 -46 -96 -119
-108 -107 -4 3 5 30 19 60 86 181 36 377 -144 562 -49 49 -89 88 -89 85z m196
-296 c34 -67 37 -82 37 -156 0 -70 -4 -92 -27 -140 -15 -32 -32 -58 -37 -58
-11 0 -12 -4 6 54 28 91 16 245 -26 343 -32 74 7 39 47 -43z" />
        <path
            d="M1595 1058 c-11 -50 -33 -183 -31 -185 1 -1 17 -4 36 -5 32 -3 37 1
69 55 18 31 40 57 47 57 8 0 14 8 14 19 0 10 3 33 6 50 l7 31 -72 0 c-65 0
-71 -2 -76 -22z" />
        <path
            d="M1756 913 c-14 -93 -34 -219 -43 -281 l-17 -114 -38 -19 c-29 -15
-38 -26 -38 -44 l0 -25 154 0 c151 0 154 0 160 23 9 33 8 34 -25 47 -20 9 -29
18 -26 29 2 9 19 115 38 234 l33 217 31 0 c29 0 32 -3 49 -61 l19 -61 36 7
c20 4 36 8 37 8 2 4 24 174 24 190 0 16 -15 17 -184 17 l-183 0 -27 -167z" />
        <path
            d="M2406 878 c-3 -13 -6 -47 -6 -77 0 -48 -3 -57 -35 -87 -19 -18 -38
-47 -41 -63 -6 -29 -5 -31 23 -31 98 0 190 64 200 139 10 75 -23 118 -103 135
-27 6 -32 4 -38 -16z" />
        <path
            d="M2700 894 c-87 -29 -100 -36 -100 -60 0 -19 5 -24 25 -24 31 0 31 2
0 -197 -14 -87 -25 -164 -25 -170 0 -9 23 -13 80 -13 74 0 80 1 85 23 5 20 65
410 65 421 0 16 -95 31 -130 20z" />
        <path
            d="M2908 884 c-24 -10 -38 -23 -38 -34 0 -10 -3 -25 -6 -33 -3 -10 3
-17 20 -21 32 -8 33 -26 6 -196 -11 -69 -20 -131 -20 -138 0 -21 69 -45 112
-39 21 3 56 14 78 26 39 20 40 20 40 2 0 -22 46 -37 82 -26 78 24 132 132 182
363 l24 112 -63 0 c-57 0 -63 -2 -69 -22 -3 -13 -2 -24 3 -26 4 -1 16 -9 26
-16 17 -12 17 -16 0 -92 -9 -43 -26 -103 -37 -131 l-19 -53 -56 0 c-47 0 -56
-3 -60 -21 -4 -14 -8 -17 -13 -9 -6 9 -13 9 -30 0 -12 -6 -23 -10 -25 -8 -1 2
6 53 16 113 26 157 25 188 -8 225 -34 38 -90 48 -145 24z" />
        <path
            d="M3424 873 c-3 -16 -7 -34 -10 -40 -2 -8 5 -13 16 -13 25 0 25 8 -6
-194 -29 -188 -31 -181 42 -192 46 -7 105 7 151 36 30 18 32 22 21 44 -9 20
-14 23 -29 16 -10 -6 -22 -10 -27 -10 -4 0 1 64 14 143 12 78 25 163 28 190
l7 47 -100 0 -101 0 -6 -27z" />
        <path
            d="M3887 886 c-169 -46 -251 -271 -144 -393 31 -35 96 -72 128 -73 24 0
32 65 12 96 -23 36 -14 195 15 251 12 23 28 46 36 50 8 4 17 25 21 46 8 42 7
43 -68 23z" />
        <path
            d="M3997 865 c-4 -25 -1 -45 8 -59 21 -28 20 -168 -1 -229 -9 -26 -26
-55 -39 -65 -28 -22 -45 -92 -23 -92 45 0 121 34 166 75 146 131 102 366 -75
401 -28 6 -30 4 -36 -31z" />
        <path
            d="M4310 891 c0 -5 -2 -16 -6 -24 -3 -9 5 -18 23 -26 24 -10 37 -34 93
-171 l65 -160 37 0 c34 0 39 4 73 60 l36 60 -52 135 -53 135 -108 0 c-59 0
-108 -4 -108 -9z" />
        <path
            d="M4713 888 c-5 -7 -27 -41 -47 -75 -35 -59 -37 -65 -25 -98 15 -40 25
-44 34 -15 3 11 10 20 14 20 4 0 0 -37 -9 -82 -10 -46 -20 -105 -23 -131 -7
-48 -7 -48 30 -64 48 -20 112 -11 170 22 48 28 47 28 33 56 -8 14 -17 18 -35
13 -31 -8 -31 -17 0 179 14 87 25 165 25 173 0 19 -153 20 -167 2z" />
        <path
            d="M5100 887 c-53 -17 -124 -93 -146 -158 -26 -76 -25 -182 2 -234 25
-50 80 -80 128 -71 46 9 64 26 71 69 6 30 4 37 -9 37 -28 0 -39 39 -34 120 5
85 27 137 69 157 16 8 26 24 30 48 3 19 4 37 1 40 -9 8 -75 4 -112 -8z" />
        <path
            d="M5290 855 l-45 -46 -27 -172 c-25 -162 -25 -173 -9 -190 38 -40 143
-30 201 19 34 29 35 33 17 58 -11 15 -17 17 -35 7 -28 -15 -28 -21 3 176 33
207 34 193 -18 193 -38 0 -48 -6 -87 -45z" />
        <path
            d="M5555 882 c-42 -14 -51 -21 -53 -44 -3 -24 0 -28 22 -28 14 0 26 -2
26 -4 0 -2 -20 -133 -45 -290 -25 -158 -45 -291 -45 -297 0 -6 43 -9 113 -7
106 3 112 4 115 24 2 16 -4 24 -26 32 l-29 10 47 298 47 299 -26 12 c-36 17
-87 15 -146 -5z" />
        <path
            d="M5813 893 c-50 -10 -72 -86 -29 -97 31 -8 40 -35 38 -112 -2 -96 -39
-164 -88 -164 -17 0 -23 -8 -29 -36 -9 -48 4 -59 68 -58 124 1 215 109 225
265 5 87 -17 155 -62 184 -27 18 -86 26 -123 18z" />
        <path
            d="M6137 890 c-59 -15 -77 -28 -77 -55 0 -20 5 -25 25 -25 19 0 25 -5
25 -21 0 -11 -11 -90 -25 -175 -14 -85 -25 -161 -25 -169 0 -12 17 -15 79 -15
67 0 80 3 85 18 10 36 68 434 63 438 -10 11 -114 13 -150 4z" />
        <path
            d="M6409 843 c-11 -51 -19 -65 -75 -119 -56 -54 -62 -64 -56 -88 l7 -27
105 81 c118 91 150 129 150 177 l0 33 -59 0 -60 0 -12 -57z" />
        <path
            d="M6876 878 c-3 -13 -6 -47 -6 -77 0 -48 -3 -57 -35 -87 -19 -18 -38
-47 -41 -63 -6 -29 -5 -31 23 -31 98 0 190 64 200 139 10 75 -23 118 -103 135
-27 6 -32 4 -38 -16z" />
        <path
            d="M7180 894 c-87 -29 -100 -36 -100 -60 0 -19 5 -24 25 -24 31 0 31 2
0 -197 -14 -87 -25 -164 -25 -170 0 -9 23 -13 80 -13 74 0 80 1 85 23 5 20 65
410 65 421 0 16 -95 31 -130 20z" />
        <path
            d="M7388 883 c-24 -9 -38 -22 -38 -33 0 -10 -3 -25 -6 -33 -3 -9 3 -16
15 -20 28 -7 27 -42 -2 -224 l-23 -143 82 0 83 0 6 33 c60 353 59 394 -10 423
-43 17 -60 17 -107 -3z" />
        <path
            d="M7633 880 c-37 -16 -43 -23 -43 -50 0 -19 5 -30 14 -30 7 0 19 -7 26
-16 11 -12 9 -43 -10 -171 -22 -150 -22 -157 -5 -169 48 -35 139 -25 202 22
29 22 31 27 21 50 -7 14 -17 23 -25 19 -7 -3 -20 -8 -29 -11 -12 -5 -14 -1
-10 17 12 50 36 220 36 249 0 46 -25 86 -61 99 -44 15 -67 14 -116 -9z" />
        <path
            d="M2248 857 c-74 -38 -120 -98 -137 -177 -21 -95 21 -195 99 -235 78
-40 204 -23 274 37 34 30 36 35 23 53 -15 20 -15 20 -55 -3 -43 -24 -91 -28
-124 -11 -65 35 -61 206 6 279 13 14 26 40 28 58 4 29 2 32 -23 32 -15 0 -56
-15 -91 -33z" />
        <path
            d="M6718 857 c-74 -38 -120 -98 -137 -177 -21 -95 21 -195 99 -235 78
-40 204 -23 274 37 34 30 36 35 23 53 -15 20 -15 20 -55 -3 -43 -24 -91 -28
-124 -11 -65 35 -61 206 6 279 13 14 26 40 28 58 4 29 2 32 -23 32 -15 0 -56
-15 -91 -33z" />
        <path
            d="M4337 715 c-3 -11 -9 -42 -12 -70 -11 -83 -11 -84 -63 -87 l-47 -3
-9 -58 c-4 -32 -5 -61 -1 -65 3 -4 26 -7 50 -7 77 0 138 68 139 154 0 56 -47
169 -57 136z" />
        <path
            d="M6358 614 c-32 -25 -58 -50 -58 -55 0 -6 5 -31 11 -56 10 -37 18 -48
45 -59 57 -24 133 -11 180 30 23 19 25 25 15 44 -10 18 -16 20 -31 12 -10 -5
-20 -10 -22 -10 -2 0 -19 32 -38 70 -19 39 -36 70 -39 70 -3 0 -32 -21 -63
-46z" />
    </g>
</svg>